<?xml version="1.0" encoding="UTF-8" standalone="no"?>
<svg
   xmlns:dc="http://purl.org/dc/elements/1.1/"
   xmlns:cc="http://creativecommons.org/ns#"
   xmlns:rdf="http://www.w3.org/1999/02/22-rdf-syntax-ns#"
   xmlns:svg="http://www.w3.org/2000/svg"
   xmlns="http://www.w3.org/2000/svg"
   viewBox="0 0 72 69.333336"
   height="69.333336"
   width="72"
   xml:space="preserve"
   id="svg2"
   version="1.1"><metadata
     id="metadata8"><rdf:RDF><cc:Work
         rdf:about=""><dc:format>image/svg+xml</dc:format><dc:type
           rdf:resource="http://purl.org/dc/dcmitype/StillImage" /></cc:Work></rdf:RDF></metadata><defs
     id="defs6"><clipPath
       id="clipPath24"
       clipPathUnits="userSpaceOnUse"><path
         style="clip-rule:evenodd"
         id="path22"
         d="M 29.36736,30.97771 C 28.37034,30.86078 27.5113,30.29257 27,29.48284 c -0.5113,0.80973 -1.37034,1.37794 -2.36736,1.49487 l -1.86033,1.1747 C 24.27071,34.52537 26.88729,36 29.75,36 34.30635,36 38,32.30635 38,27.75 38,27.46541 37.9854,27.18171 37.95634,26.89988 l -4.97363,0.51283 4.98439,-0.39478 C 37.52391,21.42242 31.23401,16 26.99941,16 22.57016,16 16.03133,21.7852 16.00019,27.69416 16.00003,27.72208 16.00003,27.72208 16,27.75 c 0,4.55635 3.69365,8.25 8.25,8.25 2.86271,0 5.47929,-1.47463 6.97769,-3.84759 z" /></clipPath><clipPath
       id="clipPath30"
       clipPathUnits="userSpaceOnUse"><path
         id="path28"
         d="M 0,0 H 54 V 52 H 0 Z" /></clipPath><clipPath
       id="clipPath40"
       clipPathUnits="userSpaceOnUse"><path
         style="clip-rule:evenodd"
         id="path38"
         d="M -9,61 H 63 V -9 H -9 Z M 32.98271,27.41271 C 32.99414,27.52358 33,27.63611 33,27.75 33,29.54493 31.54493,31 29.75,31 28.59212,31 27.57566,30.39449 27,29.48284 26.42434,30.39449 25.40788,31 24.25,31 22.45507,31 21,29.54493 21,27.75 c 0,-0.0074 2e-5,-0.01486 7e-5,-0.02228 C 21.01979,23.98813 26.00198,21 26.99941,21 c 0.9704,0 5.69888,2.82172 5.9833,6.41271 z" /></clipPath><clipPath
       id="clipPath46"
       clipPathUnits="userSpaceOnUse"><path
         id="path44"
         d="M 0,0 H 54 V 52 H 0 Z" /></clipPath><clipPath
       id="clipPath58"
       clipPathUnits="userSpaceOnUse"><path
         style="clip-rule:evenodd"
         id="path56"
         d="M -5,57 H 59 V -5 H -5 Z M 32.98271,27.41271 C 32.99414,27.52358 33,27.63611 33,27.75 33,29.54493 31.54493,31 29.75,31 28.59212,31 27.57566,30.39449 27,29.48284 26.42434,30.39449 25.40788,31 24.25,31 22.45507,31 21,29.54493 21,27.75 c 0,-0.0074 2e-5,-0.01486 7e-5,-0.02228 C 21.01979,23.98813 26.00198,21 26.99941,21 c 0.9704,0 5.69888,2.82172 5.9833,6.41271 z" /></clipPath><clipPath
       id="clipPath64"
       clipPathUnits="userSpaceOnUse"><path
         id="path62"
         d="M 0,0 H 54 V 52 H 0 Z" /></clipPath><clipPath
       id="clipPath76"
       clipPathUnits="userSpaceOnUse"><path
         style="clip-rule:evenodd"
         id="path74"
         d="M -4,56 H 58 V -4 H -4 Z M 32.98271,27.41271 C 32.99414,27.52358 33,27.63611 33,27.75 33,29.54493 31.54493,31 29.75,31 28.59212,31 27.57566,30.39449 27,29.48284 26.42434,30.39449 25.40788,31 24.25,31 22.45507,31 21,29.54493 21,27.75 c 0,-0.0074 2e-5,-0.01486 7e-5,-0.02228 C 21.01979,23.98813 26.00198,21 26.99941,21 c 0.9704,0 5.69888,2.82172 5.9833,6.41271 z" /></clipPath><clipPath
       id="clipPath82"
       clipPathUnits="userSpaceOnUse"><path
         id="path80"
         d="M 0,0 H 54 V 52 H 0 Z" /></clipPath><clipPath
       id="clipPath94"
       clipPathUnits="userSpaceOnUse"><path
         style="clip-rule:evenodd"
         id="path92"
         d="M 0,52 H 54 V 0 H 0 Z M 32.98271,27.41271 C 32.99414,27.52358 33,27.63611 33,27.75 33,29.54493 31.54493,31 29.75,31 28.59212,31 27.57566,30.39449 27,29.48284 26.42434,30.39449 25.40788,31 24.25,31 22.45507,31 21,29.54493 21,27.75 c 0,-0.0074 2e-5,-0.01486 7e-5,-0.02228 C 21.01979,23.98813 26.00198,21 26.99941,21 c 0.9704,0 5.69888,2.82172 5.9833,6.41271 z" /></clipPath><clipPath
       id="clipPath100"
       clipPathUnits="userSpaceOnUse"><path
         id="path98"
         d="M 0,0 H 54 V 52 H 0 Z" /></clipPath><clipPath
       id="clipPath112"
       clipPathUnits="userSpaceOnUse"><path
         style="clip-rule:evenodd"
         id="path110"
         d="M 1,51 H 53 V 1 H 1 Z M 32.98271,27.41271 C 32.99414,27.52358 33,27.63611 33,27.75 33,29.54493 31.54493,31 29.75,31 28.59212,31 27.57566,30.39449 27,29.48284 26.42434,30.39449 25.40788,31 24.25,31 22.45507,31 21,29.54493 21,27.75 c 0,-0.0074 2e-5,-0.01486 7e-5,-0.02228 C 21.01979,23.98813 26.00198,21 26.99941,21 c 0.9704,0 5.69888,2.82172 5.9833,6.41271 z" /></clipPath><clipPath
       id="clipPath118"
       clipPathUnits="userSpaceOnUse"><path
         id="path116"
         d="M 0,0 H 54 V 52 H 0 Z" /></clipPath><clipPath
       id="clipPath130"
       clipPathUnits="userSpaceOnUse"><path
         style="clip-rule:evenodd"
         id="path128"
         d="M 5,47 H 49 V 5 H 5 Z M 32.98271,27.41271 C 32.99414,27.52358 33,27.63611 33,27.75 33,29.54493 31.54493,31 29.75,31 28.59212,31 27.57566,30.39449 27,29.48284 26.42434,30.39449 25.40788,31 24.25,31 22.45507,31 21,29.54493 21,27.75 c 0,-0.0074 2e-5,-0.01486 7e-5,-0.02228 C 21.01979,23.98813 26.00198,21 26.99941,21 c 0.9704,0 5.69888,2.82172 5.9833,6.41271 z" /></clipPath><clipPath
       id="clipPath136"
       clipPathUnits="userSpaceOnUse"><path
         id="path134"
         d="M 0,0 H 54 V 52 H 0 Z" /></clipPath><clipPath
       id="clipPath148"
       clipPathUnits="userSpaceOnUse"><path
         style="clip-rule:evenodd"
         id="path146"
         d="M 6,46 H 48 V 6 H 6 Z M 32.98271,27.41271 C 32.99414,27.52358 33,27.63611 33,27.75 33,29.54493 31.54493,31 29.75,31 28.59212,31 27.57566,30.39449 27,29.48284 26.42434,30.39449 25.40788,31 24.25,31 22.45507,31 21,29.54493 21,27.75 c 0,-0.0074 2e-5,-0.01486 7e-5,-0.02228 C 21.01979,23.98813 26.00198,21 26.99941,21 c 0.9704,0 5.69888,2.82172 5.9833,6.41271 z" /></clipPath><clipPath
       id="clipPath154"
       clipPathUnits="userSpaceOnUse"><path
         id="path152"
         d="M 0,0 H 54 V 52 H 0 Z" /></clipPath><clipPath
       id="clipPath166"
       clipPathUnits="userSpaceOnUse"><path
         style="clip-rule:evenodd"
         id="path164"
         d="M 10,42 H 44 V 10 H 10 Z M 32.98271,27.41271 C 32.99414,27.52358 33,27.63611 33,27.75 33,29.54493 31.54493,31 29.75,31 28.59212,31 27.57566,30.39449 27,29.48284 26.42434,30.39449 25.40788,31 24.25,31 22.45507,31 21,29.54493 21,27.75 c 0,-0.0074 2e-5,-0.01486 7e-5,-0.02228 C 21.01979,23.98813 26.00198,21 26.99941,21 c 0.9704,0 5.69888,2.82172 5.9833,6.41271 z" /></clipPath><clipPath
       id="clipPath172"
       clipPathUnits="userSpaceOnUse"><path
         id="path170"
         d="M 0,0 H 54 V 52 H 0 Z" /></clipPath></defs><g
     transform="matrix(1.3333333,0,0,-1.3333333,0,69.333333)"
     id="g10"><g
       id="g12" /><g
       id="g14"><path
         id="path16"
         style="fill:#000000;fill-opacity:1;fill-rule:nonzero;stroke:none"
         d="M 0,52 H 54 V 0 H 0 Z" /></g><g
       id="g18"><g
         clip-path="url(#clipPath24)"
         id="g20"><g
           clip-path="url(#clipPath30)"
           id="g26"><path
             id="path32"
             style="fill:#e12323;fill-opacity:1;fill-rule:nonzero;stroke:none"
             d="M 16,36 H 38 V 16 H 16 Z" /></g></g></g><g
       id="g34"><g
         clip-path="url(#clipPath40)"
         id="g36"><g
           clip-path="url(#clipPath46)"
           id="g42"><g
             transform="matrix(1,0,0,-1,21,31)"
             id="g48"><path
               id="path50"
               style="fill:none;stroke:#f51553;stroke-width:40;stroke-linecap:round;stroke-linejoin:round;stroke-miterlimit:10;stroke-dasharray:none;stroke-opacity:1"
               d="M 11.98271,3.587288 C 11.99414,3.476417 12,3.363893 12,3.25 12,1.455075 10.54493,0 8.75,0 7.592117,0 6.575658,0.6055111 6,1.517157 5.424342,0.6055111 4.407883,0 3.25,0 1.455075,0 0,1.455075 0,3.25 0,3.257431 2.493937e-5,3.264856 7.473898e-5,3.272275 0.01978812,7.011871 5.001979,10 5.999411,10 6.969814,10 11.69829,7.178281 11.98271,3.587288 Z" /></g></g></g></g><g
       id="g52"><g
         clip-path="url(#clipPath58)"
         id="g54"><g
           clip-path="url(#clipPath64)"
           id="g60"><g
             transform="matrix(1,0,0,-1,21,31)"
             id="g66"><path
               id="path68"
               style="fill:none;stroke:#000000;stroke-width:32;stroke-linecap:round;stroke-linejoin:round;stroke-miterlimit:10;stroke-dasharray:none;stroke-opacity:1"
               d="M 11.98271,3.587288 C 11.99414,3.476417 12,3.363893 12,3.25 12,1.455075 10.54493,0 8.75,0 7.592117,0 6.575658,0.6055111 6,1.517157 5.424342,0.6055111 4.407883,0 3.25,0 1.455075,0 0,1.455075 0,3.25 0,3.257431 2.493937e-5,3.264856 7.473898e-5,3.272275 0.01978812,7.011871 5.001979,10 5.999411,10 6.969814,10 11.69829,7.178281 11.98271,3.587288 Z" /></g></g></g></g><g
       id="g70"><g
         clip-path="url(#clipPath76)"
         id="g72"><g
           clip-path="url(#clipPath82)"
           id="g78"><g
             transform="matrix(1,0,0,-1,21,31)"
             id="g84"><path
               id="path86"
               style="fill:none;stroke:#38e9df;stroke-width:30;stroke-linecap:round;stroke-linejoin:round;stroke-miterlimit:10;stroke-dasharray:none;stroke-opacity:1"
               d="M 11.98271,3.587288 C 11.99414,3.476417 12,3.363893 12,3.25 12,1.455075 10.54493,0 8.75,0 7.592117,0 6.575658,0.6055111 6,1.517157 5.424342,0.6055111 4.407883,0 3.25,0 1.455075,0 0,1.455075 0,3.25 0,3.257431 2.493937e-5,3.264856 7.473898e-5,3.272275 0.01978812,7.011871 5.001979,10 5.999411,10 6.969814,10 11.69829,7.178281 11.98271,3.587288 Z" /></g></g></g></g><g
       id="g88"><g
         clip-path="url(#clipPath94)"
         id="g90"><g
           clip-path="url(#clipPath100)"
           id="g96"><g
             transform="matrix(1,0,0,-1,21,31)"
             id="g102"><path
               id="path104"
               style="fill:none;stroke:#000000;stroke-width:22;stroke-linecap:round;stroke-linejoin:round;stroke-miterlimit:10;stroke-dasharray:none;stroke-opacity:1"
               d="M 11.98271,3.587288 C 11.99414,3.476417 12,3.363893 12,3.25 12,1.455075 10.54493,0 8.75,0 7.592117,0 6.575658,0.6055111 6,1.517157 5.424342,0.6055111 4.407883,0 3.25,0 1.455075,0 0,1.455075 0,3.25 0,3.257431 2.493937e-5,3.264856 7.473898e-5,3.272275 0.01978812,7.011871 5.001979,10 5.999411,10 6.969814,10 11.69829,7.178281 11.98271,3.587288 Z" /></g></g></g></g><g
       id="g106"><g
         clip-path="url(#clipPath112)"
         id="g108"><g
           clip-path="url(#clipPath118)"
           id="g114"><g
             transform="matrix(1,0,0,-1,21,31)"
             id="g120"><path
               id="path122"
               style="fill:none;stroke:#fde53b;stroke-width:20;stroke-linecap:round;stroke-linejoin:round;stroke-miterlimit:10;stroke-dasharray:none;stroke-opacity:1"
               d="M 11.98271,3.587288 C 11.99414,3.476417 12,3.363893 12,3.25 12,1.455075 10.54493,0 8.75,0 7.592117,0 6.575658,0.6055111 6,1.517157 5.424342,0.6055111 4.407883,0 3.25,0 1.455075,0 0,1.455075 0,3.25 0,3.257431 2.493937e-5,3.264856 7.473898e-5,3.272275 0.01978812,7.011871 5.001979,10 5.999411,10 6.969814,10 11.69829,7.178281 11.98271,3.587288 Z" /></g></g></g></g><g
       id="g124"><g
         clip-path="url(#clipPath130)"
         id="g126"><g
           clip-path="url(#clipPath136)"
           id="g132"><g
             transform="matrix(1,0,0,-1,21,31)"
             id="g138"><path
               id="path140"
               style="fill:none;stroke:#000000;stroke-width:12;stroke-linecap:round;stroke-linejoin:round;stroke-miterlimit:10;stroke-dasharray:none;stroke-opacity:1"
               d="M 11.98271,3.587288 C 11.99414,3.476417 12,3.363893 12,3.25 12,1.455075 10.54493,0 8.75,0 7.592117,0 6.575658,0.6055111 6,1.517157 5.424342,0.6055111 4.407883,0 3.25,0 1.455075,0 0,1.455075 0,3.25 0,3.257431 2.493937e-5,3.264856 7.473898e-5,3.272275 0.01978812,7.011871 5.001979,10 5.999411,10 6.969814,10 11.69829,7.178281 11.98271,3.587288 Z" /></g></g></g></g><g
       id="g142"><g
         clip-path="url(#clipPath148)"
         id="g144"><g
           clip-path="url(#clipPath154)"
           id="g150"><g
             transform="matrix(1,0,0,-1,21,31)"
             id="g156"><path
               id="path158"
               style="fill:none;stroke:#2bb7fc;stroke-width:10;stroke-linecap:round;stroke-linejoin:round;stroke-miterlimit:10;stroke-dasharray:none;stroke-opacity:1"
               d="M 11.98271,3.587288 C 11.99414,3.476417 12,3.363893 12,3.25 12,1.455075 10.54493,0 8.75,0 7.592117,0 6.575658,0.6055111 6,1.517157 5.424342,0.6055111 4.407883,0 3.25,0 1.455075,0 0,1.455075 0,3.25 0,3.257431 2.493937e-5,3.264856 7.473898e-5,3.272275 0.01978812,7.011871 5.001979,10 5.999411,10 6.969814,10 11.69829,7.178281 11.98271,3.587288 Z" /></g></g></g></g><g
       id="g160"><g
         clip-path="url(#clipPath166)"
         id="g162"><g
           clip-path="url(#clipPath172)"
           id="g168"><g
             transform="matrix(1,0,0,-1,21,31)"
             id="g174"><path
               id="path176"
               style="fill:none;stroke:#000000;stroke-width:2;stroke-linecap:round;stroke-linejoin:round;stroke-miterlimit:10;stroke-dasharray:none;stroke-opacity:1"
               d="M 11.98271,3.587288 C 11.99414,3.476417 12,3.363893 12,3.25 12,1.455075 10.54493,0 8.75,0 7.592117,0 6.575658,0.6055111 6,1.517157 5.424342,0.6055111 4.407883,0 3.25,0 1.455075,0 0,1.455075 0,3.25 0,3.257431 2.493937e-5,3.264856 7.473898e-5,3.272275 0.01978812,7.011871 5.001979,10 5.999411,10 6.969814,10 11.69829,7.178281 11.98271,3.587288 Z" /></g></g></g></g></g></svg>